<svg width="193" height="103" viewBox="0 0 193 103" fill="none" xmlns="http://www.w3.org/2000/svg">
<path d="M100.771 41.2566C102.107 48.9744 93.9111 46.9188 93.9111 46.9188C90.4811 37.2535 84.9929 38.1551 84.9929 38.1551C89.2896 41.2927 89.6145 43.9615 89.6145 43.9615C78.1688 35.847 62.6071 42.3746 56.6857 45.4401C53.3639 40.7517 46.6481 30.257 49.0311 25.4965C52.1724 19.2573 58.5632 22.8277 58.5632 22.8277C71.4892 22.6113 70.7671 17.9951 70.7671 17.9951C67.337 20.6639 57.2273 17.9951 57.2273 17.9951C66.0011 17.9951 69.72 14.4247 69.72 14.4247C63.1848 16.0476 55.8913 9.08717 55.8913 9.08717C53.2195 -4.58125 40.8711 1.22513 40.8711 1.22513C48.5979 -0.109258 46.5398 8.07737 46.5398 8.07737C36.8634 11.5035 37.766 16.9853 37.766 16.9853C40.9073 12.6936 43.5791 12.369 43.5791 12.369C34.7331 24.8113 43.2542 42.1222 45.7816 46.6302C41.16 49.84 30.3281 56.9086 25.4538 54.4562C19.2074 51.3186 22.7819 44.9352 22.7819 44.9352C22.6375 32.0241 18.0159 32.7454 18.0159 32.7454C20.6878 36.1716 18.0159 46.2696 18.0159 46.2696C18.0159 37.5059 14.4414 33.7913 14.4414 33.7913C16.0662 40.319 9.0977 47.604 9.0977 47.604C-4.58655 50.2727 1.22654 62.6068 1.22654 62.6068C-0.109385 54.889 8.08672 56.9447 8.08672 56.9447C11.5168 66.6099 17.005 65.7083 17.005 65.7083C12.7083 62.5707 12.3834 59.9019 12.3834 59.9019C24.4789 68.4853 41.1961 60.6954 46.251 57.9545C49.645 62.8232 55.9635 72.8491 53.6166 77.5014C50.4754 83.7405 44.0846 80.1702 44.0846 80.1702C31.1586 80.3144 31.8807 84.9307 31.8807 84.9307C35.3108 82.2619 45.4205 84.9307 45.4205 84.9307C36.6467 84.9307 32.9278 88.501 32.9278 88.501C39.463 86.8781 46.7565 93.8386 46.7565 93.8386C49.4283 107.507 61.7766 101.701 61.7766 101.701C54.0499 103.035 56.108 94.8484 56.108 94.8484C65.7844 91.4223 64.8818 85.9405 64.8818 85.9405C61.7405 90.2321 59.0687 90.5567 59.0687 90.5567C67.7342 78.403 59.7547 61.5609 57.0467 56.6201C61.9572 53.194 71.8864 47.063 76.4719 49.3711C82.7182 52.5087 79.1437 58.8921 79.1437 58.8921C79.2881 71.8032 83.9097 71.0819 83.9097 71.0819C81.2379 67.6558 83.9097 57.5578 83.9097 57.5578C83.9097 66.3214 87.4842 70.036 87.4842 70.036C85.8595 63.5084 92.828 56.2234 92.828 56.2234C106.584 53.5907 100.771 41.2566 100.771 41.2566Z" fill="url(#paint0_linear_1_12)"/>
<path d="M116.991 28H119.312V55.4049H126.242V28H128.563V74H126.242V57.7131H119.312V74H116.991V28Z" fill="url(#paint1_linear_1_12)"/>
<path d="M145.724 28L139.971 57.7131V74H137.65V57.7131L131.864 28H133.989L138.827 52.7717L143.632 28H145.724Z" fill="url(#paint2_linear_1_12)"/>
<path d="M155.988 74H149.025V28H155.955C158.538 28 160.564 30.0481 160.564 32.5837V69.3837C160.597 71.8869 158.538 74 155.988 74ZM151.346 30.3081V71.6919H155.955C157.197 71.6919 158.276 70.6516 158.276 69.3837V32.5837C158.276 31.3484 157.23 30.2756 155.955 30.2756H151.346V30.3081Z" fill="url(#paint3_linear_1_12)"/>
<path d="M175.563 74H173.176L169.09 57.7131H166.312V74H163.991V28H170.921C173.503 28 175.53 30.0481 175.53 32.5837V53.0968C175.53 55.4049 173.732 57.3555 171.444 57.6155L175.563 74ZM166.312 55.4049H170.921C172.163 55.4049 173.242 54.3647 173.242 53.0968V32.5837C173.242 31.3484 172.196 30.2756 170.921 30.2756H166.312V55.4049Z" fill="url(#paint4_linear_1_12)"/>
<path d="M182.792 57.7131L181.19 74H179.098L183.74 28H188.349L192.958 74H190.866L189.264 57.7131H182.792ZM186.486 30.3081H185.571L183.054 55.4049H189.003L186.486 30.3081Z" fill="url(#paint5_linear_1_12)"/>
<defs>
<linearGradient id="paint0_linear_1_12" x1="50.9955" y1="0" x2="50.9955" y2="102.926" gradientUnits="userSpaceOnUse">
<stop stop-color="#C0B7E8"/>
<stop offset="1" stop-color="#8176AF"/>
</linearGradient>
<linearGradient id="paint1_linear_1_12" x1="122.777" y1="28" x2="122.777" y2="74" gradientUnits="userSpaceOnUse">
<stop stop-color="#C0B7E8"/>
<stop offset="1" stop-color="#8176AF"/>
</linearGradient>
<linearGradient id="paint2_linear_1_12" x1="138.794" y1="28" x2="138.794" y2="74" gradientUnits="userSpaceOnUse">
<stop stop-color="#C0B7E8"/>
<stop offset="1" stop-color="#8176AF"/>
</linearGradient>
<linearGradient id="paint3_linear_1_12" x1="154.795" y1="28" x2="154.795" y2="74" gradientUnits="userSpaceOnUse">
<stop stop-color="#C0B7E8"/>
<stop offset="1" stop-color="#8176AF"/>
</linearGradient>
<linearGradient id="paint4_linear_1_12" x1="169.777" y1="28" x2="169.777" y2="74" gradientUnits="userSpaceOnUse">
<stop stop-color="#C0B7E8"/>
<stop offset="1" stop-color="#8176AF"/>
</linearGradient>
<linearGradient id="paint5_linear_1_12" x1="186.028" y1="28" x2="186.028" y2="74" gradientUnits="userSpaceOnUse">
<stop stop-color="#C0B7E8"/>
<stop offset="1" stop-color="#8176AF"/>
</linearGradient>
</defs>
</svg>
