<svg width="198" height="198" viewBox="0 0 198 198" fill="none" xmlns="http://www.w3.org/2000/svg">
<circle cx="99" cy="99" r="99" fill="#0D0D0D" fill-opacity="0.32"/>
<circle cx="99.5" cy="98.5" r="79.5" fill="url(#paint0_linear_20_15)"/>
<path d="M85.696 122.768C81.984 122.768 78.6773 121.851 75.776 120.016C72.8747 118.181 70.592 115.536 68.928 112.08C67.3067 108.581 66.496 104.421 66.496 99.6C66.496 94.7787 67.3067 90.64 68.928 87.184C70.592 83.6853 72.8747 81.0187 75.776 79.184C78.6773 77.3493 81.984 76.432 85.696 76.432C89.408 76.432 92.7147 77.3493 95.616 79.184C98.5173 81.0187 100.779 83.6853 102.4 87.184C104.064 90.64 104.896 94.7787 104.896 99.6C104.896 104.421 104.064 108.581 102.4 112.08C100.779 115.536 98.5173 118.181 95.616 120.016C92.7147 121.851 89.408 122.768 85.696 122.768ZM85.696 114C88.4267 114 90.56 112.827 92.096 110.48C93.6747 108.133 94.464 104.507 94.464 99.6C94.464 94.6933 93.6747 91.0667 92.096 88.72C90.56 86.3733 88.4267 85.2 85.696 85.2C83.008 85.2 80.8747 86.3733 79.296 88.72C77.76 91.0667 76.992 94.6933 76.992 99.6C76.992 104.507 77.76 108.133 79.296 110.48C80.8747 112.827 83.008 114 85.696 114ZM126.839 77.2V122H116.47V85.52H107.511V77.2H126.839Z" fill="#343045"/>
<defs>
<linearGradient id="paint0_linear_20_15" x1="166" y1="61.5" x2="20" y2="111" gradientUnits="userSpaceOnUse">
<stop stop-color="#C0B7E8"/>
<stop offset="1" stop-color="#8176AF"/>
</linearGradient>
</defs>
</svg>
