<svg width="198" height="198" viewBox="0 0 198 198" fill="none" xmlns="http://www.w3.org/2000/svg">
<circle cx="99" cy="99" r="99" fill="#0D0D0D" fill-opacity="0.32"/>
<circle cx="99.5" cy="98.5" r="79.5" fill="url(#paint0_linear_20_19)"/>
<path d="M78.696 122.768C74.984 122.768 71.6773 121.851 68.776 120.016C65.8747 118.181 63.592 115.536 61.928 112.08C60.3067 108.581 59.496 104.421 59.496 99.6C59.496 94.7787 60.3067 90.64 61.928 87.184C63.592 83.6853 65.8747 81.0187 68.776 79.184C71.6773 77.3493 74.984 76.432 78.696 76.432C82.408 76.432 85.7147 77.3493 88.616 79.184C91.5173 81.0187 93.7787 83.6853 95.4 87.184C97.064 90.64 97.896 94.7787 97.896 99.6C97.896 104.421 97.064 108.581 95.4 112.08C93.7787 115.536 91.5173 118.181 88.616 120.016C85.7147 121.851 82.408 122.768 78.696 122.768ZM78.696 114C81.4267 114 83.56 112.827 85.096 110.48C86.6747 108.133 87.464 104.507 87.464 99.6C87.464 94.6933 86.6747 91.0667 85.096 88.72C83.56 86.3733 81.4267 85.2 78.696 85.2C76.008 85.2 73.8747 86.3733 72.296 88.72C70.76 91.0667 69.992 94.6933 69.992 99.6C69.992 104.507 70.76 108.133 72.296 110.48C73.8747 112.827 76.008 114 78.696 114ZM136.031 113.552V122H102.174V115.28L119.455 98.96C121.289 97.2107 122.527 95.7173 123.167 94.48C123.807 93.2 124.127 91.9413 124.127 90.704C124.127 88.912 123.508 87.5467 122.271 86.608C121.076 85.6267 119.305 85.136 116.958 85.136C114.996 85.136 113.225 85.52 111.647 86.288C110.068 87.0133 108.745 88.1227 107.679 89.616L100.127 84.752C101.876 82.1493 104.287 80.1227 107.359 78.672C110.431 77.1787 113.951 76.432 117.919 76.432C121.247 76.432 124.148 76.9867 126.623 78.096C129.14 79.1627 131.081 80.6987 132.447 82.704C133.855 84.6667 134.559 86.992 134.559 89.68C134.559 92.112 134.047 94.3947 133.023 96.528C131.999 98.6613 130.015 101.093 127.071 103.824L116.767 113.552H136.031Z" fill="#343045"/>
<defs>
<linearGradient id="paint0_linear_20_19" x1="166" y1="61.5" x2="20" y2="111" gradientUnits="userSpaceOnUse">
<stop stop-color="#C0B7E8"/>
<stop offset="1" stop-color="#8176AF"/>
</linearGradient>
</defs>
</svg>
