<svg width="198" height="198" viewBox="0 0 198 198" fill="none" xmlns="http://www.w3.org/2000/svg">
<circle cx="99" cy="99" r="99" fill="#0D0D0D" fill-opacity="0.32"/>
<circle cx="99.5" cy="98.5" r="79.5" fill="url(#paint0_linear_20_23)"/>
<path d="M78.696 122.768C74.984 122.768 71.6773 121.851 68.776 120.016C65.8747 118.181 63.592 115.536 61.928 112.08C60.3067 108.581 59.496 104.421 59.496 99.6C59.496 94.7787 60.3067 90.64 61.928 87.184C63.592 83.6853 65.8747 81.0187 68.776 79.184C71.6773 77.3493 74.984 76.432 78.696 76.432C82.408 76.432 85.7147 77.3493 88.616 79.184C91.5173 81.0187 93.7787 83.6853 95.4 87.184C97.064 90.64 97.896 94.7787 97.896 99.6C97.896 104.421 97.064 108.581 95.4 112.08C93.7787 115.536 91.5173 118.181 88.616 120.016C85.7147 121.851 82.408 122.768 78.696 122.768ZM78.696 114C81.4267 114 83.56 112.827 85.096 110.48C86.6747 108.133 87.464 104.507 87.464 99.6C87.464 94.6933 86.6747 91.0667 85.096 88.72C83.56 86.3733 81.4267 85.2 78.696 85.2C76.008 85.2 73.8747 86.3733 72.296 88.72C70.76 91.0667 69.992 94.6933 69.992 99.6C69.992 104.507 70.76 108.133 72.296 110.48C73.8747 112.827 76.008 114 78.696 114ZM123.237 95.44C127.162 96.08 130.17 97.552 132.261 99.856C134.351 102.117 135.397 104.933 135.397 108.304C135.397 110.907 134.714 113.317 133.349 115.536C131.983 117.712 129.893 119.461 127.077 120.784C124.303 122.107 120.89 122.768 116.837 122.768C113.679 122.768 110.565 122.363 107.493 121.552C104.463 120.699 101.882 119.504 99.7485 117.968L103.781 110.032C105.487 111.312 107.45 112.315 109.669 113.04C111.93 113.723 114.234 114.064 116.581 114.064C119.183 114.064 121.231 113.573 122.725 112.592C124.218 111.568 124.965 110.139 124.965 108.304C124.965 104.635 122.17 102.8 116.581 102.8H111.845V95.952L121.061 85.52H101.989V77.2H133.349V83.92L123.237 95.44Z" fill="#343045"/>
<defs>
<linearGradient id="paint0_linear_20_23" x1="166" y1="61.5" x2="20" y2="111" gradientUnits="userSpaceOnUse">
<stop stop-color="#C0B7E8"/>
<stop offset="1" stop-color="#8176AF"/>
</linearGradient>
</defs>
</svg>
