<svg width="198" height="198" viewBox="0 0 198 198" fill="none" xmlns="http://www.w3.org/2000/svg">
<circle cx="99" cy="99" r="99" fill="#0D0D0D" fill-opacity="0.32"/>
<circle cx="99.5" cy="98.5" r="79.5" fill="url(#paint0_linear_20_27)"/>
<path d="M77.696 122.768C73.984 122.768 70.6773 121.851 67.776 120.016C64.8747 118.181 62.592 115.536 60.928 112.08C59.3067 108.581 58.496 104.421 58.496 99.6C58.496 94.7787 59.3067 90.64 60.928 87.184C62.592 83.6853 64.8747 81.0187 67.776 79.184C70.6773 77.3493 73.984 76.432 77.696 76.432C81.408 76.432 84.7147 77.3493 87.616 79.184C90.5173 81.0187 92.7787 83.6853 94.4 87.184C96.064 90.64 96.896 94.7787 96.896 99.6C96.896 104.421 96.064 108.581 94.4 112.08C92.7787 115.536 90.5173 118.181 87.616 120.016C84.7147 121.851 81.408 122.768 77.696 122.768ZM77.696 114C80.4267 114 82.56 112.827 84.096 110.48C85.6747 108.133 86.464 104.507 86.464 99.6C86.464 94.6933 85.6747 91.0667 84.096 88.72C82.56 86.3733 80.4267 85.2 77.696 85.2C75.008 85.2 72.8747 86.3733 71.296 88.72C69.76 91.0667 68.992 94.6933 68.992 99.6C68.992 104.507 69.76 108.133 71.296 110.48C72.8747 112.827 75.008 114 77.696 114ZM142.958 112.592H135.662V122H125.55V112.592H101.422V105.616L122.542 77.2H133.422L113.838 104.144H125.87V95.76H135.662V104.144H142.958V112.592Z" fill="#343045"/>
<defs>
<linearGradient id="paint0_linear_20_27" x1="166" y1="61.5" x2="20" y2="111" gradientUnits="userSpaceOnUse">
<stop stop-color="#C0B7E8"/>
<stop offset="1" stop-color="#8176AF"/>
</linearGradient>
</defs>
</svg>
