<svg width="41" height="39" fill="none" xmlns="http://www.w3.org/2000/svg"><g clip-path="url(#a)" stroke="#fff" stroke-width="2"><path clip-rule="evenodd" d="M35.685 38.978H4.555C2.04 38.978 0 36.93 0 34.404V11.15c0-2.527 2.04-4.575 4.556-4.575h31.129c2.516 0 4.555 2.048 4.555 4.575v23.253c0 2.526-2.04 4.574-4.555 4.574Z"/><path d="M.759 19.441H39.48M15.564 19.441v19.442H11.01V19.44M24.676 38.883V19.44M29.231 19.441v19.442M14.425 5.718S14.141 0 20.12 0c5.6 0 5.694 5.718 5.694 5.718"/></g><defs><clipPath id="a"><path fill="#fff" d="M0 0h41v39H0z"/></clipPath></defs></svg>