<svg width="0" height="0" class="hidden">
  <symbol fill="none" xmlns="http://www.w3.org/2000/svg" viewBox="0 0 11 17" id="location">
    <g clip-path="url(#clip0_0_7075)">
      <path fill-rule="evenodd" clip-rule="evenodd" d="M4.7664 16.3727C4.89755 16.5907 5.12879 16.7234 5.37774 16.7235C5.62673 16.7235 5.85801 16.5909 5.98915 16.3729C7.39825 14.0841 10.7554 8.33863 10.7554 5.54067C10.7554 2.48067 8.3477 0 5.37771 0C2.40767 0 0 2.48067 0 5.54067C0 8.33863 3.35712 14.0841 4.7664 16.3727Z" fill="#4B4B4B"></path>
      <ellipse cx="5.31647" cy="5.09999" rx="2.01667" ry="2.07778" fill="white"></ellipse>
    </g>
    <defs>
      <clipPath id="clip0_0_7075">
        <rect width="11" height="17" fill="white"></rect>
      </clipPath>
    </defs>
  </symbol>
  <symbol fill="none" xmlns="http://www.w3.org/2000/svg" viewBox="0 0 17 10" id="mail">
    <g clip-path="url(#clip0_0_7072)">
      <rect width="17" height="10" rx="1" fill="#4B4B4B"></rect>
      <path d="M0.354004 0.357178C0.354004 0.357178 5.59811 4.00679 7.63135 5.43311C8.09896 5.76114 8.71712 5.77046 9.19425 5.45668C11.2392 4.11182 16.6457 0.357178 16.6457 0.357178" stroke="white" stroke-linecap="round" stroke-linejoin="round"></path>
    </g>
    <defs>
      <clipPath id="clip0_0_7072">
        <rect width="17" height="10" fill="white"></rect>
      </clipPath>
    </defs>
  </symbol>
  <symbol fill="none" xmlns="http://www.w3.org/2000/svg" viewBox="0 0 12 18" id="phone">
    <path fill-rule="evenodd" clip-rule="evenodd" d="M11.9061 14.9807C12.0059 15.1684 12.0272 15.3882 11.965 15.5916C11.9028 15.795 11.7624 15.9653 11.5746 16.0652C11.2463 16.2398 10.8518 16.4496 10.4999 16.6367C9.89665 16.9576 9.20559 17.0741 8.53045 16.9688C8.28947 16.9312 8.02776 16.8904 7.76962 16.8501C6.78041 16.6958 5.92151 16.0848 5.45142 15.2009C4.18574 12.821 1.63394 8.02272 0.370667 5.64738C-0.0971752 4.76763 -0.123558 3.71895 0.299537 2.81683C0.411485 2.57809 0.525158 2.33571 0.629729 2.11278C0.919825 1.49413 1.40278 0.986274 2.00607 0.665464C2.35792 0.478335 2.75246 0.268511 3.08073 0.0938922C3.26854 -0.00594737 3.48831 -0.0271583 3.69168 0.035031C3.89508 0.0971801 4.06545 0.237597 4.16533 0.425368C4.48626 1.0289 4.95206 1.90472 5.31597 2.589C5.46349 2.86639 5.49476 3.191 5.40294 3.49144C5.31112 3.79189 5.1037 4.04353 4.82636 4.19104C4.65278 4.28335 4.47018 4.38046 4.28907 4.47681C3.90972 4.67853 3.62604 5.02272 3.50046 5.43359C3.37488 5.84449 3.41766 6.28844 3.61938 6.66779C4.41385 8.16161 5.65194 10.4896 6.44055 11.9725C6.85214 12.7464 7.81317 13.0402 8.58706 12.6286C8.78145 12.5252 8.9782 12.4206 9.16429 12.3216C9.73586 12.0176 10.4456 12.2345 10.7497 12.8061C11.1144 13.492 11.5834 14.3739 11.9061 14.9807Z" fill="#4B4B4B"></path>
  </symbol>
</svg>