<svg width="16" height="16" viewBox="0 0 16 16" fill="none" xmlns="http://www.w3.org/2000/svg">
<mask id="mask0_0_8098" style="mask-type:luminance" maskUnits="userSpaceOnUse" x="0" y="0" width="16" height="16">
<path fill-rule="evenodd" clip-rule="evenodd" d="M0 15.9872H15.9481V0H0V15.9872Z" fill="white"/>
</mask>
<g mask="url(#mask0_0_8098)">
<path fill-rule="evenodd" clip-rule="evenodd" d="M15.0679 0H0.880181C0.39402 0 0 0.394986 0 0.88234V15.1048C0 15.5921 0.39402 15.9872 0.880181 15.9872H8.5184V9.79613H6.44002V7.38332H8.5184V5.60397C8.5184 3.53906 9.77646 2.41466 11.614 2.41466C12.4943 2.41466 13.2508 2.48032 13.4712 2.50967V4.66766L12.1968 4.66825C11.1974 4.66825 11.0039 5.14429 11.0039 5.84285V7.38332H13.3873L13.077 9.79613H11.0039V15.9872H15.0679C15.554 15.9872 15.9481 15.5921 15.9481 15.1048V0.88234C15.9481 0.394986 15.554 0 15.0679 0Z" fill="white"/>
</g>
</svg>
