<svg xmlns="http://www.w3.org/2000/svg" width="59" height="64" fill="none"><g stroke="#EBCB80" stroke-linecap="round" stroke-linejoin="round" stroke-width="2" clip-path="url(#a)"><path d="M55.465.997.997 55.465V.997h54.468Z" clip-rule="evenodd"/><path d="M33.678 10.529 11.89 32.316V10.529h21.787Z" clip-rule="evenodd"/><path d="M2.358 7.805h4.086M2.358 21.422h4.086M2.358 14.614h4.086M2.358 35.04h4.086M2.358 28.23h4.086M21.834 50.679l25.053-27.285M48.882 63.556l5.383-36.65"/><path d="M54.673 16.544a5.45 5.45 0 0 1 2.577 7.26 5.45 5.45 0 0 1-7.26 2.576 5.45 5.45 0 0 1-2.576-7.26 5.45 5.45 0 0 1 7.259-2.576v0Z" clip-rule="evenodd"/><path d="M52.917 20.232a1.363 1.363 0 1 1-1.173 2.46 1.363 1.363 0 0 1 1.173-2.46v0Z" clip-rule="evenodd"/><path d="m58.185 9.167-2.927 6.148M33.599 29.133c6.348 8.098 13.522 11.969 24.59 11.707"/></g><defs><clipPath id="a"><path fill="#fff" d="M0 0h59v64H0z"/></clipPath></defs></svg>