<svg width="16" height="17" viewBox="0 0 16 17" fill="none" xmlns="http://www.w3.org/2000/svg">
<g clip-path="url(#clip0_0_8101)">
<path fill-rule="evenodd" clip-rule="evenodd" d="M0 8.38116C0 11.769 2.10257 14.6627 5.07033 15.8276C5.00039 15.1951 4.9373 14.2244 5.09772 13.534C5.24298 12.9099 6.03334 9.55883 6.03334 9.55883C6.03334 9.55883 5.79466 9.07982 5.79466 8.37185C5.79466 7.25989 6.43732 6.42984 7.23795 6.42984C7.91876 6.42984 8.24742 6.94169 8.24742 7.55602C8.24742 8.24241 7.81165 9.26809 7.58667 10.2187C7.39886 11.0145 7.98478 11.6636 8.76781 11.6636C10.1857 11.6636 11.2758 10.1648 11.2758 8.00169C11.2758 6.08713 9.90346 4.74817 7.9437 4.74817C5.67386 4.74817 4.3416 6.45484 4.3416 8.21888C4.3416 8.90577 4.6057 9.64315 4.93534 10.0437C5.00039 10.1227 5.01017 10.1923 4.99061 10.2732C4.92996 10.5257 4.79547 11.0689 4.76906 11.1797C4.73433 11.3263 4.65314 11.3572 4.50202 11.2871C3.50575 10.8218 2.88315 9.36173 2.88315 8.18897C2.88315 5.66647 4.71134 3.34988 8.15401 3.34988C10.9208 3.34988 13.0717 5.3267 13.0717 7.96835C13.0717 10.7242 11.3379 12.9423 8.93214 12.9423C8.12368 12.9423 7.36413 12.5211 7.10394 12.024C7.10394 12.024 6.70387 13.5507 6.60703 13.9248C6.42656 14.6195 5.94041 15.4903 5.61517 16.0212C6.36151 16.2527 7.15481 16.3777 7.97745 16.3777C12.3826 16.3777 15.9544 12.7976 15.9544 8.38116C15.9544 3.96469 12.3826 0.384644 7.97745 0.384644C3.57178 0.384644 0 3.96469 0 8.38116Z" fill="white"/>
</g>
<defs>
<clipPath id="clip0_0_8101">
<rect width="16" height="16" fill="white" transform="translate(0 0.384644)"/>
</clipPath>
</defs>
</svg>
