<svg width="38" height="39" fill="none" xmlns="http://www.w3.org/2000/svg"><g clip-path="url(#a)"><path clip-rule="evenodd" d="M36.486 34.979a1.48 1.48 0 0 1-.385 1.408l-1.564 1.566a.486.486 0 0 1-.767-.102l-9.873-17.299-.965-.163-11.111 9.7 1.392 5.954c.121.52-.031 1.055-.407 1.432L11.779 38.5a.463.463 0 0 1-.426.127.465.465 0 0 1-.341-.286l-2.298-5.746-2.669-2.651L.26 27.627a.411.411 0 0 1-.25-.302.41.41 0 0 1 .114-.377l1.073-1.074a1.542 1.542 0 0 1 1.455-.416l5.933 1.39 9.69-11.125-.164-.965L.734 4.818a.4.4 0 0 1-.085-.632L2.263 2.57c.385-.385.953-.54 1.478-.405l22.354 5.73 6.22-6.227a3.266 3.266 0 0 1 2.327-.966c.867 0 1.716.352 2.33.967.612.614.965 1.464.965 2.332 0 .868-.353 1.717-.966 2.332l-6.218 6.225 5.733 22.42Z" stroke="#fff" stroke-width="2"/></g><defs><clipPath id="a"><path fill="#fff" d="M0 0h38v39H0z"/></clipPath></defs></svg>