<svg xmlns="http://www.w3.org/2000/svg" width="64" height="59" fill="none"><g clip-path="url(#a)"><path stroke="#EBCB80" stroke-linecap="round" stroke-width="2" d="M63.635 6.155A5.161 5.161 0 0 0 58.477.997H6.156A5.161 5.161 0 0 0 .997 6.155v41.428a5.161 5.161 0 0 0 5.159 5.158h52.32a5.161 5.161 0 0 0 5.16-5.158V6.155Z" clip-rule="evenodd"/><path stroke="#EBCB80" stroke-linecap="round" stroke-width="2" d="M54.103 13.143a3.524 3.524 0 0 0-3.522-3.522h-36.53a3.524 3.524 0 0 0-3.522 3.522v27.452a3.524 3.524 0 0 0 3.522 3.522h36.53a3.524 3.524 0 0 0 3.522-3.522V13.143Z" clip-rule="evenodd"/><path fill="#EBCB80" d="m32.386 18.29.998.054.036-.664-.599-.29-.435.9Zm-3.464-.928.072-.997-.663-.048-.3.593.89.452Zm-1.28 2.522.084.996.555-.047.252-.496-.892-.453Zm-3.648 1.4-.36.933.52.2.445-.337-.605-.796Zm-2.638-1.017.36-.933-.62-.24-.461.48.72.693Zm-1.953 3.007-.926-.377-.251.616.47.47.707-.709Zm2.002 1.997.974.228.127-.543-.395-.393-.706.708Zm.205 3.901.776.63.351-.432-.183-.527-.944.329Zm-1.783 2.195-.776-.63-.42.516.314.586.882-.472Zm2.257 2.787-.645.764.508.43.592-.303-.455-.89Zm2.518-1.287.517-.856-.476-.288-.497.254.456.89Zm3.773 1.01.84-.543-.303-.467-.558.011.021 1Zm1.537 2.375-.84.543.362.558.654-.117-.176-.984Zm3.348-1.285.527.85.565-.352-.105-.656-.987.158Zm-.446-2.793-.654-.757-.422.365.088.55.988-.158Zm2.127-3.276-.257-.966-.539.143-.161.534.957.289Zm2.733-.728.257.966.643-.171.09-.659-.99-.136Zm-.188-3.581.97-.24-.158-.645-.657-.103-.155.988Zm-2.794-.439-.921.388.216.514.55.086.155-.988Zm-2.458-3.036-.999-.053-.03.556.458.318.57-.82Zm-1.687 6.376-.966-.26v.001l.966.259Zm-2.937 1.695.26-.966h-.001l-.259.966Zm-1.695-2.936.966.259-.966-.26Zm2.936-1.696-.258.966.258-.966Zm3.97-7.163c-1.199-.58-2.497-.928-3.827-1.025l-.145 1.995a8.532 8.532 0 0 1 3.1.83l.872-1.8Zm-4.79-.48-1.281 2.52 1.783.907 1.28-2.522-1.783-.905Zm-.473 1.977a8.01 8.01 0 0 0-4.168 1.6L24.6 22.08a6.01 6.01 0 0 1 3.127-1.2l-.168-1.993Zm-3.204 1.464-2.639-1.017-.719 1.866 2.639 1.017.72-1.866Zm-3.72-.777a10.532 10.532 0 0 0-2.157 3.323l1.852.754c.407-1 1-1.913 1.748-2.692l-1.442-1.385Zm-1.937 4.408 2.002 1.997 1.412-1.416-2.002-1.997-1.412 1.416Zm1.734 1.061a8.01 8.01 0 0 0 .234 4.457l1.89-.657a6.01 6.01 0 0 1-.176-3.344l-1.948-.456Zm.402 3.499-1.782 2.195 1.552 1.26 1.783-2.195-1.553-1.26Zm-1.888 3.297a10.532 10.532 0 0 0 2.494 3.08l1.29-1.53a8.533 8.533 0 0 1-2.02-2.494l-1.764.944Zm3.594 3.206 2.518-1.288-.91-1.78-2.518 1.287.91 1.78Zm1.545-1.322a8.01 8.01 0 0 0 4.312 1.155l-.042-2a6.009 6.009 0 0 1-3.235-.867l-1.035 1.712Zm3.451.698 1.538 2.374 1.678-1.087-1.537-2.374-1.678 1.087Zm2.553 2.815a10.532 10.532 0 0 0 3.7-1.42l-1.056-1.699c-.917.57-1.934.96-2.997 1.15l.353 1.969Zm4.16-2.427-.447-2.793-1.975.316.446 2.792 1.975-.315Zm-.78-1.878a8.01 8.01 0 0 0 2.43-3.744l-1.914-.578a6.01 6.01 0 0 1-1.824 2.808l1.307 1.514Zm1.73-3.067 2.733-.728-.515-1.933-2.732.729.515 1.932Zm3.466-1.558c.182-1.32.112-2.663-.207-3.957l-1.942.48a8.532 8.532 0 0 1 .168 3.204l1.981.273Zm-1.023-4.705-2.794-.439-.31 1.976 2.794.439.31-1.976Zm-2.027.161a8.009 8.009 0 0 0-2.81-3.469l-1.141 1.642a6.009 6.009 0 0 1 2.108 2.603l1.843-.776Zm-2.382-2.594.152-2.824-1.997-.107-.152 2.824 1.997.107Zm-4.64 4.351c.745.2 1.189.967.989 1.712l1.932.518a3.399 3.399 0 0 0-2.403-4.162l-.517 1.932Zm.989 1.712a1.399 1.399 0 0 1-1.712.988l-.518 1.932a3.399 3.399 0 0 0 4.162-2.402l-1.932-.518Zm-1.712.988a1.399 1.399 0 0 1-.988-1.712l-1.932-.517a3.399 3.399 0 0 0 2.402 4.161l.518-1.932Zm-.988-1.712c.2-.745.967-1.188 1.712-.988l.517-1.932a3.399 3.399 0 0 0-4.161 2.403l1.932.517Z"/><path stroke="#EBCB80" stroke-linecap="round" stroke-width="2" d="M45.933 21.422v9.532"/><path fill="#EBCB80" fill-rule="evenodd" d="M45.933 29.593a2.725 2.725 0 0 1 2.723 2.723 2.725 2.725 0 1 1-2.723-2.723ZM45.933 17.952a2.725 2.725 0 0 1 2.723 2.723 2.725 2.725 0 1 1-2.723-2.723Z" clip-rule="evenodd"/><path stroke="#EBCB80" stroke-linecap="round" stroke-width="2" d="M10.529 58.188h8.17v-5.447h-8.17v5.447ZM45.933 58.188h8.17v-5.447h-8.17v5.447Z" clip-rule="evenodd"/></g><defs><clipPath id="a"><path fill="#fff" d="M0 0h64v59H0z"/></clipPath></defs></svg>