<svg width="0" height="0" class="hidden">
  <symbol fill="none" xmlns="http://www.w3.org/2000/svg" viewBox="0 0 24 26" id="facebook">
    <mask id="mask0_0_7030" maskUnits="userSpaceOnUse" x="0" y="0" width="24" height="25">
      <path fill-rule="evenodd" clip-rule="evenodd" d="M0 24.0602H23.9905V0.00537109H0V24.0602Z" fill="white"></path>
    </mask>
    <g mask="url(#mask0_0_7030)">
      <path fill-rule="evenodd" clip-rule="evenodd" d="M22.6664 0.00537109H1.32404C0.592719 0.00537109 0 0.599679 0 1.33297V22.7326C0 23.4658 0.592719 24.0603 1.32404 24.0603H12.8141V14.7449H9.68764V11.1145H12.8141V8.43726C12.8141 5.33035 14.7066 3.63855 17.4708 3.63855C18.795 3.63855 19.9329 3.73733 20.2645 3.78149V7.02846L18.3474 7.02937C16.8441 7.02937 16.553 7.74562 16.553 8.7967V11.1145H20.1383L19.6716 14.7449H16.553V24.0603H22.6664C23.3977 24.0603 23.9905 23.4658 23.9905 22.7326V1.33297C23.9905 0.599679 23.3977 0.00537109 22.6664 0.00537109Z" fill="#4B4B4B"></path>
    </g>
  </symbol>
  <symbol fill="none" xmlns="http://www.w3.org/2000/svg" viewBox="0 0 36 24" id="google-plus">
    <g clip-path="url(#clip0_0_7040)">
      <path fill-rule="evenodd" clip-rule="evenodd" d="M11.2203 9.83469V13.7675H17.5837C17.3273 15.4553 15.6603 18.7163 11.2203 18.7163C7.38934 18.7163 4.2637 15.4717 4.2637 11.4734C4.2637 7.47501 7.38934 4.23045 11.2203 4.23045C13.4002 4.23045 14.8588 5.18087 15.6923 6.00021L18.7378 3.00145C16.7823 1.13337 14.2497 0.00268555 11.2203 0.00268555C5.01706 0.00268555 0 5.13171 0 11.4734C0 17.815 5.01706 22.944 11.2203 22.944C17.6959 22.944 21.9917 18.2902 21.9917 11.7355C21.9917 10.9818 21.9116 10.4082 21.8154 9.83469H11.2203Z" fill="#4B4B4B"></path>
      <path fill-rule="evenodd" clip-rule="evenodd" d="M35.2638 9.83471H32.0581V6.55737H28.8523V9.83471H25.6465V13.112H28.8523V16.3894H32.0581V13.112H35.2638" fill="#4B4B4B"></path>
    </g>
    <defs>
      <clipPath id="clip0_0_7040">
        <rect width="36" height="23" fill="white" transform="translate(0 0.00268555)"></rect>
      </clipPath>
    </defs>
  </symbol>
  <symbol fill="none" xmlns="http://www.w3.org/2000/svg" viewBox="0 0 24 26" id="instagram">
    <mask id="mask0_0_7033" maskUnits="userSpaceOnUse" x="0" y="0" width="24" height="25">
      <path fill-rule="evenodd" clip-rule="evenodd" d="M0 24.0647H24V0.00537109H0V24.0647Z" fill="white"></path>
    </mask>
    <g mask="url(#mask0_0_7033)">
      <path fill-rule="evenodd" clip-rule="evenodd" d="M21.3333 6.68991C21.3333 7.05906 21.0348 7.35837 20.6667 7.35837H17.3333C16.9652 7.35837 16.6667 7.05906 16.6667 6.68991V3.34764C16.6667 2.97849 16.9652 2.67919 17.3333 2.67919H20.6667C21.0348 2.67919 21.3333 2.97849 21.3333 3.34764V6.68991ZM21.3333 20.7274C21.3333 21.0966 21.0348 21.3959 20.6667 21.3959H3.33333C2.96517 21.3959 2.66667 21.0966 2.66667 20.7274V10.0322H4.94283C4.763 10.6696 4.66667 11.3424 4.66667 12.0375C4.66667 16.0985 7.94992 19.3905 12 19.3905C16.0501 19.3905 19.3333 16.0985 19.3333 12.0375C19.3333 11.3424 19.237 10.6696 19.0572 10.0322H21.3333V20.7274ZM12 7.35837C14.5773 7.35837 16.6667 9.4533 16.6667 12.0375C16.6667 14.6218 14.5773 16.7167 12 16.7167C9.42267 16.7167 7.33333 14.6218 7.33333 12.0375C7.33333 9.4533 9.42267 7.35837 12 7.35837ZM20.6667 0.00537109H3.33333C1.49242 0.00537109 0 1.50179 0 3.34764V20.7274C0 22.5733 1.49242 24.0697 3.33333 24.0697H20.6667C22.5076 24.0697 24 22.5733 24 20.7274V3.34764C24 1.50179 22.5076 0.00537109 20.6667 0.00537109Z" fill="#4B4B4B"></path>
    </g>
  </symbol>
  <symbol fill="none" xmlns="http://www.w3.org/2000/svg" viewBox="0 0 25 26" id="linkedin">
    <mask id="mask0_0_7043" maskUnits="userSpaceOnUse" x="0" y="0" width="25" height="25">
      <path fill-rule="evenodd" clip-rule="evenodd" d="M0.0458984 24.0269H24.7384V0.00268555H0.0458984V24.0269Z" fill="white"></path>
    </mask>
    <g mask="url(#mask0_0_7043)">
      <path fill-rule="evenodd" clip-rule="evenodd" d="M21.088 20.5082H17.4265V14.9232C17.4265 13.5917 17.4025 11.8784 15.5231 11.8784C13.6176 11.8784 13.3267 13.3297 13.3267 14.8283V20.5082H9.66871V9.02414H13.1793V10.5943H13.2293C13.7177 9.69126 14.9133 8.73938 16.6953 8.73938C20.4027 8.73938 21.088 11.1171 21.088 14.21V20.5082ZM5.53877 7.45528C4.36241 7.45528 3.41447 6.52813 3.41447 5.38508C3.41447 4.24269 4.36241 3.31554 5.53877 3.31554C6.71032 3.31554 7.6617 4.24269 7.6617 5.38508C7.6617 6.52813 6.71032 7.45528 5.53877 7.45528ZM3.7053 20.5082H7.37087V9.02414H3.7053V20.5082ZM22.9118 0.00268555H1.86771C0.862832 0.00268555 0.0458984 0.779429 0.0458984 1.73799V22.3304C0.0458984 23.2889 0.862832 24.067 1.86771 24.067H22.9118C23.9194 24.067 24.7384 23.2889 24.7384 22.3304V1.73799C24.7384 0.779429 23.9194 0.00268555 22.9118 0.00268555Z" fill="#4B4B4B"></path>
    </g>
  </symbol>
  <symbol fill="none" xmlns="http://www.w3.org/2000/svg" viewBox="0 0 25 25" id="pinterest">
    <g clip-path="url(#clip0_0_7050)">
      <path fill-rule="evenodd" clip-rule="evenodd" d="M12.2977 0.315186C5.67034 0.315186 0.297363 5.70183 0.297363 12.347C0.297363 17.4445 3.46023 21.7983 7.9246 23.5511C7.81939 22.5995 7.72448 21.1388 7.9658 20.1002C8.18431 19.1611 9.37323 14.1189 9.37323 14.1189C9.37323 14.1189 9.0142 13.3982 9.0142 12.333C9.0142 10.6599 9.98094 9.41096 11.1853 9.41096C12.2094 9.41096 12.7038 10.1811 12.7038 11.1054C12.7038 12.1382 12.0483 13.6815 11.7099 15.1119C11.4274 16.3091 12.3088 17.2859 13.4867 17.2859C15.6195 17.2859 17.2594 15.0307 17.2594 11.776C17.2594 8.89531 15.195 6.88067 12.247 6.88067C8.83248 6.88067 6.82837 9.44858 6.82837 12.1028C6.82837 13.1363 7.22566 14.2458 7.72154 14.8485C7.81939 14.9673 7.8341 15.072 7.80467 15.1938C7.71345 15.5737 7.51112 16.391 7.47139 16.5578C7.41916 16.7783 7.29703 16.8248 7.06969 16.7193C5.57102 16.0192 4.63445 13.8224 4.63445 12.0578C4.63445 8.26237 7.38458 4.77676 12.5633 4.77676C16.7253 4.77676 19.961 7.75115 19.961 11.7258C19.961 15.8724 17.3529 19.2098 13.7339 19.2098C12.5177 19.2098 11.3751 18.5761 10.9837 17.8281C10.9837 17.8281 10.3819 20.1252 10.2362 20.6881C9.96476 21.7334 9.23345 23.0436 8.74419 23.8425C9.8669 24.1907 11.0602 24.3788 12.2977 24.3788C18.9244 24.3788 24.2974 18.9921 24.2974 12.347C24.2974 5.70183 18.9244 0.315186 12.2977 0.315186Z" fill="#4B4B4B"></path>
    </g>
    <defs>
      <clipPath id="clip0_0_7050">
        <rect width="25" height="25" fill="white"></rect>
      </clipPath>
    </defs>
  </symbol>
  <symbol fill="none" xmlns="http://www.w3.org/2000/svg" viewBox="0 0 30 25" id="twitter">
    <mask id="mask0_0_7027" maskUnits="userSpaceOnUse" x="0" y="0" width="30" height="24">
      <path fill-rule="evenodd" clip-rule="evenodd" d="M0 23.9745H29.4167V0.00537109H0V23.9745Z" fill="white"></path>
    </mask>
    <g mask="url(#mask0_0_7027)">
      <path fill-rule="evenodd" clip-rule="evenodd" d="M29.4231 2.84356C28.3406 3.32496 27.1771 3.65031 25.9561 3.79664C27.2024 3.04751 28.1595 1.86135 28.6103 0.448026C27.4439 1.14157 26.152 1.64531 24.777 1.91681C23.6758 0.740467 22.107 0.00537109 20.3708 0.00537109C17.037 0.00537109 14.3341 2.71536 14.3341 6.05793C14.3341 6.53231 14.3876 6.99428 14.4905 7.43726C9.47354 7.18485 5.02558 4.77518 2.04829 1.1133C1.52868 2.00724 1.231 3.04697 1.231 4.1562C1.231 6.25606 2.29679 8.10869 3.91652 9.19407C2.92692 9.16266 1.9962 8.8904 1.18224 8.43706C1.18181 8.46232 1.18181 8.48767 1.18181 8.51314C1.18181 11.4458 3.2626 13.8921 6.02411 14.4481C5.51752 14.5864 4.98425 14.6603 4.43365 14.6603C4.0447 14.6603 3.66651 14.6225 3.29801 14.5518C4.06612 16.9565 6.29543 18.7064 8.93693 18.7553C6.871 20.3786 4.26813 21.3462 1.44 21.3462C0.952789 21.3462 0.472251 21.3176 0 21.2617C2.67143 22.979 5.84448 23.981 9.25345 23.981C20.3567 23.981 26.4284 14.7581 26.4284 6.75979C26.4284 6.49735 26.4226 6.23631 26.411 5.97678C27.5903 5.12341 28.6138 4.05735 29.4231 2.84356Z" fill="#4B4B4B"></path>
    </g>
  </symbol>
</svg>