<svg width="21" height="16" viewBox="0 0 21 16" fill="none" xmlns="http://www.w3.org/2000/svg">
<mask id="mask0_0_8095" style="mask-type:luminance" maskUnits="userSpaceOnUse" x="0" y="0" width="21" height="16">
<path fill-rule="evenodd" clip-rule="evenodd" d="M0.619629 15.9892H20.1749V0.05896H0.619629V15.9892Z" fill="white"/>
</mask>
<g mask="url(#mask0_0_8095)">
<path fill-rule="evenodd" clip-rule="evenodd" d="M20.1748 1.94526C19.4551 2.26521 18.6817 2.48144 17.87 2.57869C18.6985 2.08081 19.3348 1.29247 19.6344 0.353155C18.8591 0.814099 18.0002 1.14889 17.0862 1.32933C16.3541 0.547516 15.3112 0.05896 14.1571 0.05896C11.9409 0.05896 10.1441 1.86006 10.1441 4.08158C10.1441 4.39686 10.1796 4.7039 10.248 4.99831C6.91293 4.83055 3.95607 3.22905 1.97687 0.795308C1.63145 1.38944 1.43356 2.08046 1.43356 2.81767C1.43356 4.21326 2.14206 5.44455 3.21881 6.16591C2.56096 6.14504 1.94224 5.96409 1.40115 5.66279C1.40086 5.67957 1.40086 5.69643 1.40086 5.71336C1.40086 7.66241 2.7841 9.2883 4.61986 9.6578C4.2831 9.74975 3.9286 9.79888 3.56258 9.79888C3.30402 9.79888 3.05261 9.7737 2.80764 9.72673C3.31825 11.3249 4.80022 12.4879 6.55621 12.5204C5.18284 13.5993 3.45254 14.2424 1.5725 14.2424C1.24862 14.2424 0.929171 14.2234 0.615234 14.1863C2.39111 15.3276 4.50045 15.9935 6.76662 15.9935C14.1477 15.9935 18.184 9.86386 18.184 4.54805C18.184 4.37363 18.1801 4.20014 18.1724 4.02765C18.9564 3.46049 19.6367 2.75197 20.1748 1.94526Z" fill="white"/>
</g>
</svg>
