<svg width="40" height="40" fill="none" xmlns="http://www.w3.org/2000/svg"><g clip-path="url(#a)"><path clip-rule="evenodd" d="M36.706 39.432H4.087a3.265 3.265 0 0 1-3.264-3.266V12.06a3.265 3.265 0 0 1 3.264-3.266h32.62a3.266 3.266 0 0 1 3.265 3.266v24.107a3.266 3.266 0 0 1-3.266 3.266Z" stroke="#fff" stroke-width="2"/><path clip-rule="evenodd" d="M31.46 29.219h8.511V19.006h-8.51a3.404 3.404 0 0 0-3.404 3.404v3.405a3.404 3.404 0 0 0 3.404 3.404Z" stroke="#fff" stroke-width="2"/><path fill-rule="evenodd" clip-rule="evenodd" d="M34.865 24.113a1.702 1.702 0 1 1-3.403 0 1.702 1.702 0 0 1 3.403 0Z" fill="#fff"/><path d="M17.844 8.793 29.759.283l5.106 8.51" stroke="#fff" stroke-width="2"/><path d="m9.333 8.793 8.51-8.51 5.107 5.106" stroke="#fff" stroke-width="2"/></g><defs><clipPath id="a"><path fill="#fff" d="M0 0h40v40H0z"/></clipPath></defs></svg>