<svg width="20" height="18" viewBox="0 0 20 18" fill="none" xmlns="http://www.w3.org/2000/svg">
<mask id="mask0_0_8295" style="mask-type:luminance" maskUnits="userSpaceOnUse" x="0" y="0" width="20" height="18">
<path fill-rule="evenodd" clip-rule="evenodd" d="M0.976685 17.97H19.4293V0H0.976685V17.97Z" fill="white"/>
</mask>
<g mask="url(#mask0_0_8295)">
<path fill-rule="evenodd" clip-rule="evenodd" d="M16.7014 15.338H13.9652V11.1605C13.9652 10.1645 13.9472 8.883 12.5427 8.883C11.1188 8.883 10.9014 9.9685 10.9014 11.0895V15.338H8.16779V6.748H10.7912V7.9225H10.8286C11.1936 7.247 12.087 6.535 13.4187 6.535C16.1893 6.535 16.7014 8.3135 16.7014 10.627V15.338ZM5.08149 5.5745C4.2024 5.5745 3.49401 4.881 3.49401 4.026C3.49401 3.1715 4.2024 2.478 5.08149 2.478C5.95699 2.478 6.66795 3.1715 6.66795 4.026C6.66795 4.881 5.95699 5.5745 5.08149 5.5745ZM3.71134 15.338H6.45061V6.748H3.71134V15.338ZM18.0643 0H2.33812C1.58718 0 0.976685 0.581 0.976685 1.298V16.701C0.976685 17.418 1.58718 18 2.33812 18H18.0643C18.8173 18 19.4293 17.418 19.4293 16.701V1.298C19.4293 0.581 18.8173 0 18.0643 0Z" fill="#EBCB80"/>
</g>
</svg>
