<svg width="24" height="18" viewBox="0 0 24 18" fill="none" xmlns="http://www.w3.org/2000/svg">
<mask id="mask0_0_8286" style="mask-type:luminance" maskUnits="userSpaceOnUse" x="0" y="0" width="24" height="18">
<path fill-rule="evenodd" clip-rule="evenodd" d="M0.887817 17.9952H23.4V0.0663452H0.887817V17.9952Z" fill="white"/>
</mask>
<g mask="url(#mask0_0_8286)">
<path fill-rule="evenodd" clip-rule="evenodd" d="M23.4 2.1893C22.5715 2.54938 21.6812 2.79274 20.7467 2.90219C21.7006 2.34185 22.433 1.45461 22.7779 0.397448C21.8854 0.91622 20.8967 1.29301 19.8444 1.49609C19.0017 0.616193 17.8011 0.0663452 16.4724 0.0663452C13.9211 0.0663452 11.8526 2.0934 11.8526 4.59363C11.8526 4.94846 11.8936 5.29401 11.9723 5.62536C8.1329 5.43656 4.72894 3.63414 2.45046 0.895072C2.05281 1.56374 1.825 2.34145 1.825 3.17114C1.825 4.74183 2.64063 6.12758 3.88019 6.93944C3.12287 6.91595 2.41059 6.7123 1.78769 6.37321C1.78736 6.39209 1.78736 6.41106 1.78736 6.43011C1.78736 8.62369 3.37976 10.4536 5.4931 10.8694C5.10541 10.9729 4.69731 11.0282 4.27594 11.0282C3.97828 11.0282 3.68886 10.9999 3.40685 10.947C3.99467 12.7457 5.70073 14.0546 7.72224 14.0912C6.14121 15.3054 4.14927 16.0292 1.98495 16.0292C1.61209 16.0292 1.24434 16.0078 0.882935 15.966C2.92734 17.2505 5.35563 18 7.96447 18C16.4616 18 21.1082 11.1013 21.1082 5.11861C21.1082 4.92231 21.1038 4.72705 21.0949 4.53293C21.9974 3.89461 22.7807 3.09721 23.4 2.1893Z" fill="#EBCB80"/>
</g>
</svg>
