<svg width="11" height="17" viewBox="0 0 11 17" fill="none" xmlns="http://www.w3.org/2000/svg">
<g clip-path="url(#clip0_0_8681)">
<path fill-rule="evenodd" clip-rule="evenodd" d="M5.25824 16.3562C5.01482 16.3562 4.78871 16.2264 4.66048 16.0131C3.28252 13.7748 0 8.1555 0 5.41898C0 2.42619 2.35417 0 5.2582 0C8.1622 0 10.5164 2.42619 10.5164 5.41898C10.5164 8.1555 7.23385 13.7748 5.85606 16.0133C5.72783 16.2265 5.50169 16.3562 5.25824 16.3562ZM5.19852 7.02014C6.28754 7.02014 7.17037 6.11032 7.17037 4.98799C7.17037 3.86567 6.28754 2.95585 5.19852 2.95585C4.10949 2.95585 3.22667 3.86567 3.22667 4.98799C3.22667 6.11032 4.10949 7.02014 5.19852 7.02014Z" fill="white"/>
</g>
<defs>
<clipPath id="clip0_0_8681">
<rect width="11" height="17" fill="white"/>
</clipPath>
</defs>
</svg>
