<svg width="26" height="18" viewBox="0 0 26 18" fill="none" xmlns="http://www.w3.org/2000/svg">
<path d="M12.5143 0.199999H16.4023V17H12.5143V0.199999ZM4.88231 17H0.994306V0.199999H4.88231V17ZM12.8023 10.112H4.59431V6.824H12.8023V10.112ZM22.8604 17.192C22.2204 17.192 21.6684 16.976 21.2044 16.544C20.7564 16.096 20.5324 15.528 20.5324 14.84C20.5324 14.152 20.7564 13.6 21.2044 13.184C21.6684 12.752 22.2204 12.536 22.8604 12.536C23.5164 12.536 24.0684 12.752 24.5164 13.184C24.9644 13.6 25.1884 14.152 25.1884 14.84C25.1884 15.528 24.9644 16.096 24.5164 16.544C24.0684 16.976 23.5164 17.192 22.8604 17.192Z" fill="#EBCB80"/>
</svg>
