<svg width="37" height="27" viewBox="0 0 37 27" fill="none" xmlns="http://www.w3.org/2000/svg">
<path d="M17.5215 0.799998H23.3535V26H17.5215V0.799998ZM6.07346 26H0.241458V0.799998H6.07346V26ZM17.9535 15.668H5.64146V10.736H17.9535V15.668ZM33.0407 26.288C32.0807 26.288 31.2527 25.964 30.5567 25.316C29.8847 24.644 29.5487 23.792 29.5487 22.76C29.5487 21.728 29.8847 20.9 30.5567 20.276C31.2527 19.628 32.0807 19.304 33.0407 19.304C34.0247 19.304 34.8527 19.628 35.5247 20.276C36.1967 20.9 36.5327 21.728 36.5327 22.76C36.5327 23.792 36.1967 24.644 35.5247 25.316C34.8527 25.964 34.0247 26.288 33.0407 26.288Z" fill="#EBCB80"/>
</svg>
