<svg width="17" height="16" viewBox="0 0 17 16" fill="none" xmlns="http://www.w3.org/2000/svg">
<mask id="mask0_0_8126" style="mask-type:luminance" maskUnits="userSpaceOnUse" x="0" y="0" width="17" height="16">
<path fill-rule="evenodd" clip-rule="evenodd" d="M0.692261 15.9937H16.6859V0H0.692261V15.9937Z" fill="white"/>
</mask>
<g mask="url(#mask0_0_8126)">
<path fill-rule="evenodd" clip-rule="evenodd" d="M15.8032 0H1.57496C1.08741 0 0.692261 0.395146 0.692261 0.882697V15.111C0.692261 15.5984 1.08741 15.9937 1.57496 15.9937H9.235V9.80009H7.15069V7.38631H9.235V5.60623C9.235 3.54049 10.4967 2.41564 12.3395 2.41564C13.2222 2.41564 13.9809 2.48132 14.202 2.51068V4.66954L12.9239 4.67014C11.9217 4.67014 11.7276 5.14637 11.7276 5.84521V7.38631H14.1178L13.8066 9.80009H11.7276V15.9937H15.8032C16.2907 15.9937 16.6859 15.5984 16.6859 15.111V0.882697C16.6859 0.395146 16.2907 0 15.8032 0Z" fill="white"/>
</g>
</svg>
