<svg width="16" height="16" viewBox="0 0 16 16" fill="none" xmlns="http://www.w3.org/2000/svg">
<mask id="mask0_0_8129" style="mask-type:luminance" maskUnits="userSpaceOnUse" x="0" y="0" width="16" height="16">
<path fill-rule="evenodd" clip-rule="evenodd" d="M0 15.9967H16V0H0V15.9967Z" fill="white"/>
</mask>
<g mask="url(#mask0_0_8129)">
<path fill-rule="evenodd" clip-rule="evenodd" d="M14.2222 4.44444C14.2222 4.68989 14.0232 4.88889 13.7778 4.88889H11.5556C11.3101 4.88889 11.1111 4.68989 11.1111 4.44444V2.22222C11.1111 1.97678 11.3101 1.77778 11.5556 1.77778H13.7778C14.0232 1.77778 14.2222 1.97678 14.2222 2.22222V4.44444ZM14.2222 13.7778C14.2222 14.0232 14.0232 14.2222 13.7778 14.2222H2.22222C1.97678 14.2222 1.77778 14.0232 1.77778 13.7778V6.66667H3.29522C3.17533 7.0905 3.11111 7.53778 3.11111 8C3.11111 10.7001 5.29994 12.8889 8 12.8889C10.7001 12.8889 12.8889 10.7001 12.8889 8C12.8889 7.53778 12.8247 7.0905 12.7048 6.66667H14.2222V13.7778ZM8 4.88889C9.71822 4.88889 11.1111 6.28178 11.1111 8C11.1111 9.71822 9.71822 11.1111 8 11.1111C6.28178 11.1111 4.88889 9.71822 4.88889 8C4.88889 6.28178 6.28178 4.88889 8 4.88889ZM13.7778 0H2.22222C0.994945 0 0 0.994945 0 2.22222V13.7778C0 15.0051 0.994945 16 2.22222 16H13.7778C15.0051 16 16 15.0051 16 13.7778V2.22222C16 0.994945 15.0051 0 13.7778 0Z" fill="white"/>
</g>
</svg>
