<svg width="20" height="16" viewBox="0 0 20 16" fill="none" xmlns="http://www.w3.org/2000/svg">
<mask id="mask0_0_8123" style="mask-type:luminance" maskUnits="userSpaceOnUse" x="0" y="0" width="20" height="16">
<path fill-rule="evenodd" clip-rule="evenodd" d="M0.00427246 15.9958H19.6154V0.059082H0.00427246V15.9958Z" fill="white"/>
</mask>
<g mask="url(#mask0_0_8123)">
<path fill-rule="evenodd" clip-rule="evenodd" d="M19.6154 1.94615C18.8937 2.26622 18.1181 2.48254 17.304 2.57984C18.135 2.08175 18.773 1.29309 19.0735 0.353396C18.296 0.814526 17.4347 1.14945 16.518 1.32997C15.7839 0.547835 14.738 0.059082 13.5806 0.059082C11.358 0.059082 9.55609 1.86091 9.55609 4.08333C9.55609 4.39874 9.59175 4.7059 9.66034 5.00043C6.3157 4.83261 3.35039 3.23045 1.36552 0.795728C1.01912 1.3901 0.820664 2.0814 0.820664 2.8189C0.820664 4.21506 1.53119 5.44685 2.61101 6.1685C1.95128 6.14762 1.3308 5.9666 0.788161 5.66518C0.787874 5.68197 0.787874 5.69883 0.787874 5.71576C0.787874 7.66561 2.17507 9.29216 4.01607 9.66181C3.67835 9.75379 3.32283 9.80294 2.95577 9.80294C2.69647 9.80294 2.44434 9.77775 2.19867 9.73076C2.71074 11.3296 4.19695 12.4931 5.95796 12.5256C4.58066 13.6049 2.84542 14.2483 0.96 14.2483C0.635193 14.2483 0.314834 14.2293 0 14.1921C1.78095 15.3339 3.89632 16.0001 6.16897 16.0001C13.5712 16.0001 17.6189 9.86794 17.6189 4.54999C17.6189 4.37549 17.6151 4.20193 17.6073 4.02938C18.3935 3.46199 19.0759 2.75318 19.6154 1.94615Z" fill="#FFFFFE"/>
</g>
</svg>
